PathFileType	4	(X/Y/Z)	/Users/itak/Documents/Research/Walk-IL/dataset/trc/00023_00004.trc
DataRate	CameraRate	NumFrames	NumMarkers	Units	OrigDataRate	OrigDataStartFrame	OrigNumFrames
100.000000	100.000000	4	53	mm	100.000000	211	844
Frame#	Time	RPSI			LPSI			L3			STRN			T10			C7			CLAV			RBAK			LBAK			LSHO			LUPA			LAEL			LAOL			LWTS			LWPS			LFRA			LIFD			LHPS			LHTS			RSHO			RUPA			RAEL			RAOL			RWTS			RWPS			RFRA			RIFD			RHTS			RHPS			RBHD			LFHD			RFHD			LBHD			LHIP			RHIP			RASI			LASI			LKNE			LTHI			LANK			LTIP			LTOE			LMT1			LMT5			LHEE			RKNE			RTHI			RANK			RTIP			RTOE			RMT1			RMT5			RHEE			
		X1	Y1	Z1	X2	Y2	Z2	X3	Y3	Z3	X4	Y4	Z4	X5	Y5	Z5	X6	Y6	Z6	X7	Y7	Z7	X8	Y8	Z8	X9	Y9	Z9	X10	Y10	Z10	X11	Y11	Z11	X12	Y12	Z12	X13	Y13	Z13	X14	Y14	Z14	X15	Y15	Z15	X16	Y16	Z16	X17	Y17	Z17	X18	Y18	Z18	X19	Y19	Z19	X20	Y20	Z20	X21	Y21	Z21	X22	Y22	Z22	X23	Y23	Z23	X24	Y24	Z24	X25	Y25	Z25	X26	Y26	Z26	X27	Y27	Z27	X28	Y28	Z28	X29	Y29	Z29	X30	Y30	Z30	X31	Y31	Z31	X32	Y32	Z32	X33	Y33	Z33	X34	Y34	Z34	X35	Y35	Z35	X36	Y36	Z36	X37	Y37	Z37	X38	Y38	Z38	X39	Y39	Z39	X40	Y40	Z40	X41	Y41	Z41	X42	Y42	Z42	X43	Y43	Z43	X44	Y44	Z44	X45	Y45	Z45	X46	Y46	Z46	X47	Y47	Z47	X48	Y48	Z48	X49	Y49	Z49	X50	Y50	Z50	X51	Y51	Z51	X52	Y52	Z52	X53	Y53	Z53	

212	2.11	727.6103515625	1052.280029296875	844.8710327148438	602.259765625	1041.720703125	740.2515869140625	652.2448120117188	1112.588623046875	787.704833984375	812.51953125	1300.4072265625	620.4415283203125	625.4705810546875	1256.970458984375	792.5438842773438	648.5399780273438	1521.149047851562	731.7987670898438	773.0444946289062	1425.8017578125	638.7086791992188	663.9295654296875	1392.509521484375	837.4279174804688	572.4461669921875	1475.042602539062	675.1666870117188	598.28173828125	1474.759521484375	553.3402099609375	523.4945678710938	1347.518310546875	526.6871948242188	507.8221740722656	1129.906127929688	525.7276611328125	532.84423828125	1122.385620117188	628.7064819335938	651.4986572265625	904.019775390625	486.7238464355469	574.1583251953125	869.9132690429688	516.0797729492188	529.5519409179688	1016.56005859375	509.4976806640625	722.5855712890625	727.826416015625	475.5903930664062	616.4166259765625	788.1548461914062	489.5655212402344	676.8282470703125	812.3093872070312	459.2371520996094	816.0108032226562	1518.122192382812	812.7877197265625	854.38232421875	1457.750122070312	883.376953125	856.6861572265625	1199.940795898438	962.3963623046875	795.5565795898438	1159.200073242188	894.3133544921875	954.953369140625	934.4174194335938	885.1083984375	948.9509887695312	928.0477294921875	976.5972900390625	882.9490966796875	1125.739868164062	975.3399047851562	980.6931762695312	748.38720703125	877.2225952148438	999.1968994140625	828.69677734375	882.5446166992188	989.8018798828125	829.1461791992188	957.1976928710938	659.0938110351562	1700.822021484375	654.613037109375	838.647705078125	1682.805541992188	531.4937744140625	747.1975708007812	1677.945556640625	495.5989379882812	796.4865112304688	1704.36474609375	700.8051147460938	585.9793701171875	936.56787109375	597.935302734375	885.6589965820312	946.1192626953125	822.7501831054688	890.9110717773438	982.9769287109375	699.2235717773438	710.0460205078125	984.779541015625	550.01220703125	680.4873657226562	495.4632873535156	645.6527099609375	631.830078125	629.9172973632812	620.89453125	590.696044921875	36.2574348449707	815.8458862304688	603.5870971679688	269.6616516113281	735.8953857421875	814.6901245117188	33.49955368041992	764.7823486328125	768.95947265625	46.04778289794922	803.8851928710938	687.7406616210938	34.71853637695312	734.0691528320312	558.827392578125	53.93052291870117	894.4098510742188	989.7826538085938	544.6516723632812	683.6649169921875	939.3994140625	798.318603515625	773.5760498046875	978.7205810546875	56.91272354125977	790.2490844726562	999.3935546875	421.4122924804688	704.1466064453125	1107.0947265625	50.43645095825195	594.7559814453125	1041.276733398438	51.29834747314453	620.2427368164062	1098.017456054688	53.36006164550781	700.0118408203125	908.3643188476562	51.0281982421875	797.4932250976562	
213	2.12	735.63916015625	1051.156616210938	840.53955078125	608.5997314453125	1040.661743164062	737.7569580078125	659.2080078125	1111.734741210938	784.39404296875	816.8682250976562	1299.427368164062	614.3119506835938	632.5401000976562	1256.123291015625	789.5949096679688	654.857421875	1520.261108398438	728.1304931640625	777.7290649414062	1424.837524414062	633.204833984375	671.815185546875	1391.668212890625	833.7353515625	577.7627563476562	1474.101928710938	672.9264526367188	601.6400756835938	1473.7861328125	550.6337280273438	526.274658203125	1346.6171875	525.272705078125	510.3482360839844	1129.024658203125	524.6000366210938	537.076416015625	1121.434326171875	627.1407470703125	653.5922241210938	903.3814697265625	482.8426513671875	576.877197265625	869.10693359375	513.5257568359375	531.8446044921875	1015.702392578125	507.8634948730469	724.7603149414062	727.2909545898438	470.3282775878906	618.7609252929688	787.4732666015625	486.1673889160156	678.6419067382812	811.7554321289062	454.8114624023438	823.5686645507812	1517.130737304688	806.51171875	862.9407958984375	1456.834716796875	876.5349731445312	866.64404296875	1199.2392578125	956.01904296875	804.2726440429688	1158.356201171875	888.9772338867188	963.3865356445312	933.451171875	877.8380126953125	958.8921508789062	927.3367309570312	969.4286499023438	892.9183959960938	1125.06298828125	968.6956176757812	988.7442626953125	747.3525390625	870.0433349609375	1007.544006347656	827.6870727539062	874.857421875	999.2908325195312	828.33056640625	949.6558227539062	664.4305419921875	1699.7705078125	650.4429321289062	842.4234619140625	1681.479370117188	525.1073608398438	750.5319213867188	1676.633911132812	490.4137878417969	802.3214111328125	1703.234375	694.864501953125	589.9845581054688	935.96533203125	595.6862182617188	893.7744750976562	945.3790893554688	815.7869873046875	896.49072265625	982.16748046875	692.0785522460938	713.2919921875	983.9320678710938	545.5670776367188	682.3094482421875	494.8064575195312	643.4251708984375	634.3602294921875	629.5250854492188	618.7251586914062	591.0333251953125	36.65260314941406	816.208740234375	604.6915893554688	269.7757873535156	735.1583251953125	814.872802734375	33.44337463378906	764.4026489257812	769.1176147460938	46.04913711547852	803.7160034179688	687.8965454101562	34.74161529541016	734.0779418945312	559.3546142578125	54.77182006835938	894.8392944335938	996.4873046875	544.9293212890625	674.2208251953125	946.7164306640625	797.8880615234375	765.4646606445312	996.3269653320312	55.05082702636719	768.3096313476562	1008.439514160156	421.6886596679688	691.7628784179688	1119.80322265625	51.33234405517578	569.7579345703125	1054.60595703125	51.80195236206055	596.8950805664062	1113.332275390625	52.91260528564453	675.1529541015625	926.2081298828125	48.90262985229492	777.1777954101562	
214	2.13	743.75244140625	1049.99462890625	836.1619873046875	615.0592041015625	1039.56884765625	735.1868286132812	666.2554321289062	1110.841918945312	780.9931030273438	821.2593383789062	1298.400390625	608.1343994140625	639.6826171875	1255.231201171875	786.54052734375	661.2650146484375	1519.330078125	724.377197265625	782.4365234375	1423.823608398438	627.6605834960938	679.7254028320312	1390.771606445312	829.9141845703125	583.1636962890625	1473.13623046875	670.5864868164062	605.0874633789062	1472.774047851562	547.8753662109375	529.1604614257812	1345.689331054688	523.8106689453125	512.942138671875	1128.114013671875	523.4053955078125	541.356689453125	1120.439086914062	625.495849609375	655.6546630859375	902.6795654296875	478.924072265625	579.5913696289062	868.2606201171875	510.913330078125	534.1695556640625	1014.809814453125	506.1617126464844	726.8655395507812	726.6831665039062	465.0310363769531	621.0607299804688	786.7322387695312	482.7313537597656	680.4030151367188	811.1301879882812	450.3581848144531	831.1271362304688	1516.078857421875	800.1513061523438	871.4620361328125	1455.860961914062	869.6004028320312	876.5303955078125	1198.488525390625	949.559814453125	812.9393310546875	1157.469482421875	883.5877075195312	971.7489624023438	932.4432373046875	870.5081787109375	968.7417602539062	926.567626953125	962.1770629882812	902.7962036132812	1124.331665039062	961.9676513671875	996.7388916015625	746.2803955078125	862.7996215820312	1015.79638671875	826.6273803710938	867.1122436523438	1008.68408203125	827.45849609375	942.0322875976562	669.8319091796875	1698.676025390625	646.1981201171875	846.2256469726562	1680.087524414062	518.6575317382812	753.8793334960938	1675.244873046875	485.2399597167969	808.1923828125	1702.058715820312	688.8289184570312	594.0563354492188	935.3639526367188	593.365478515625	901.9031372070312	944.5761108398438	808.7279052734375	902.1051025390625	981.3070068359375	684.8798217773438	716.6172485351562	983.0584716796875	541.0750732421875	684.1905517578125	494.1619567871094	641.1220092773438	637.0017700195312	629.154296875	616.50341796875	591.4244995117188	37.0922966003418	816.6021118164062	605.8237915039062	269.9495544433594	734.3717651367188	815.0593872070312	33.39273071289062	764.0162353515625	769.2807006835938	46.06692504882812	803.5272827148438	688.0607299804688	34.77037811279297	734.0948486328125	559.9219970703125	55.687255859375	895.2797241210938	1003.063781738281	544.9885864257812	665.0640869140625	953.9926147460938	797.3221435546875	757.4622192382812	1013.211608886719	53.47026824951172	746.2420043945312	1017.198120117188	421.87158203125	679.6146850585938	1131.58544921875	53.11880111694336	544.745361328125	1067.07861328125	53.00782775878906	573.5362548828125	1127.789306640625	53.11137008666992	650.1880493164062	943.3886108398438	46.93704986572266	756.7520141601562	
215	2.14	751.97021484375	1048.801879882812	831.726318359375	621.6480102539062	1038.451293945312	732.5399169921875	673.4073486328125	1109.912109375	777.5050659179688	825.6968994140625	1297.328857421875	601.9074096679688	646.908447265625	1254.291870117188	783.37255859375	667.742431640625	1518.354370117188	720.5474853515625	787.1771850585938	1422.762939453125	622.0706787109375	687.6636962890625	1389.8193359375	825.9605102539062	588.6517944335938	1472.1396484375	668.14111328125	608.620361328125	1471.725708007812	545.06201171875	532.1549072265625	1344.731079101562	522.2925415039062	515.6094360351562	1127.174194335938	522.133056640625	545.6777954101562	1119.40234375	623.761962890625	657.6936645507812	901.9117431640625	474.9687805175781	582.2975463867188	867.3721313476562	508.2402648925781	536.5433959960938	1013.883117675781	504.3869323730469	728.8968505859375	725.9965209960938	459.7037048339844	623.3173828125	785.9280395507812	479.2583312988281	682.1005249023438	810.4252319335938	445.8766174316406	838.6849975585938	1514.97021484375	793.7078247070312	879.954345703125	1454.829467773438	862.5740356445312	886.3329467773438	1197.685668945312	943.0125122070312	821.5687866210938	1156.542236328125	878.1358032226562	980.0463256835938	931.3900146484375	863.1171875	978.4942626953125	925.7383422851562	954.843994140625	912.5938720703125	1123.545043945312	955.1527099609375	1004.703063964844	745.17333984375	855.4890747070312	1023.950866699219	825.5150756835938	859.3076171875	1017.988098144531	826.5308227539062	934.3272094726562	675.296630859375	1697.54541015625	641.877685546875	850.0521240234375	1678.638427734375	512.1435546875	757.2377319335938	1673.796508789062	480.0727233886719	814.1017456054688	1700.84228515625	682.7009887695312	598.201904296875	934.7720947265625	590.9642333984375	910.033203125	943.6908569335938	801.549072265625	907.762939453125	980.3963623046875	677.6122436523438	720.0376586914062	982.16259765625	536.5185546875	686.1282348632812	493.5244140625	638.74267578125	639.7329711914062	628.80712890625	614.2107543945312	591.8468627929688	37.57772064208984	817.0023193359375	606.9752807617188	270.1746215820312	733.5292358398438	815.244384765625	33.34817504882812	763.6424560546875	769.448486328125	46.10243225097656	803.3226928710938	688.2279663085938	34.80148315429688	734.1173095703125	560.5137329101562	56.68233871459961	895.7051391601562	1009.509399414062	544.8233642578125	656.1420288085938	961.242919921875	796.6072387695312	749.5490112304688	1029.4306640625	52.17110443115234	724.1339111328125	1025.668334960938	421.9578247070312	667.6724243164062	1142.412963867188	55.97692108154297	519.7965087890625	1078.687377929688	55.04146575927734	550.2579956054688	1141.401489257812	54.095703125	625.1803588867188	959.9767456054688	45.06042861938477	736.3250122070312	
